M48
;Layer_Color=9474304
;FILE_FORMAT=2:4
INCH,TZ
;TYPE=PLATED
T1F00S00C0.0118
T2F00S00C0.0256
T3F00S00C0.0394
;TYPE=NON_PLATED
T4F00S00C0.0787
%
T01
X3051Y2037
X3829Y3583
X5305Y5492
X5344Y6358
X4665Y6240
X4724Y7165
X4754Y8140
X5886Y7618
X5787Y8799
X5059Y9596
X3960Y9892
X3327Y10472
X4557Y11309
X7431Y7835
X7835Y7982
X7106Y7264
X6619Y6521
X7352Y5807
X8032Y5610
Y6181
X8228Y6907
X9262Y6161
X9449Y5502
X9823Y5512
X10157Y5945
X10502Y4705
X9222Y4567
X9104Y5384
X8120Y3839
X2628Y6329
X11043Y5659
X11620
Y3400
X11043
T02
X9551Y10419
Y10919
X10051
Y10419
X10551
Y10919
X11051
Y10419
X11551
Y10919
T03
X996Y1406
Y2406
X1996
Y3406
Y4406
X996
Y5406
X1996
Y6406
Y7406
Y8406
X996
Y9406
Y10406
X1996
Y9406
X996Y7406
Y6406
Y3406
X1996Y1406
X4136
X5136
X9226Y1406
X10226
X11226
T04
X3150Y2906
Y8906
M30
